<svg id="Layer_1" data-name="Layer 1" xmlns="http://www.w3.org/2000/svg" viewBox="0 0 1003.69 1762"><defs><style>.cls-1{fill:#50b1f9;}.cls-2{fill:#1682d3;}.cls-3{fill:#1f95ff;}.cls-4{fill:#fff;}.cls-5{opacity:0.1;}</style></defs><title>kartoffel2_1</title><path class="cls-1" d="M765.6,1293c0,6.6,51.91-18.75,77-8,14,6,37.92,15,62,3,20-10,73,30,75,15,22.24-166.78,26-616-7-673s-238-134-238-134Z"/><path class="cls-1" d="M238.83,1293c0,6.6-51.91-18.75-77-8-14,6-37.92,15-62,3-20-10-73,30-75,15-22.24-166.78-26-616,7-673s238-134,238-134Z"/><path class="cls-2" d="M172.6,537c-232,54-163,267-163,267h178S239.26,521.48,172.6,537Z"/><path class="cls-2" d="M831.09,537c232,54,163,267,163,267h-178S764.42,521.48,831.09,537Z"/><rect class="cls-1" x="234.6" y="1015" width="531" height="702"/><rect class="cls-3" x="237.6" y="1575" width="531" height="142"/><circle class="cls-3" cx="499.6" cy="769" r="401"/><circle class="cls-1" cx="500.1" cy="222.5" r="222.5"/><rect x="157.6" y="1717" width="690" height="45"/><path class="cls-4" d="M437.2,260.67c29-9.77,105.32-10.67,124.72,0s-33.26,73.45-52.66,75.82S413.22,268.74,437.2,260.67Z"/><path d="M439.6,218s0-23.8-26.16-23.8c-23.14,0-24.84,23.8-24.84,23.8Z"/><path d="M619.6,218s0-25-27.47-25c-24.32,0-26.1,25-26.1,25Z"/><rect class="cls-2" x="237.6" y="1073" width="519" height="167"/><polygon class="cls-5" points="234.6 1717 500.6 1714.96 500.6 1015 234.6 1017.04 234.6 1717"/><path class="cls-2" d="M138.71,944l714.64,14S777.6,1154,499.6,1170,124.83,898,138.71,944Z"/></svg>
