<svg id="Layer_1" data-name="Layer 1" xmlns="http://www.w3.org/2000/svg" viewBox="0 0 285 250"><defs><style>.cls-1{fill:#f4a9a2;}.cls-2{fill:#fff;}.cls-3{fill:#fcfcfc;}.cls-3,.cls-7{stroke:#000;stroke-miterlimit:10;}.cls-4{fill:#ff8a73;}.cls-5{fill:#160314;}.cls-6{fill:#f73e92;}.cls-7{fill:none;stroke-width:6px;}</style></defs><title>pig6</title><ellipse class="cls-1" cx="134.26" cy="136.33" rx="92.29" ry="72.18"/><path class="cls-1" d="M99.51,64.1c1.41,14-11.19,24.79-27.45,28.42-22.33,5,.33-17.28-32.57-22.37C-9.41,62.6,52.37,43.72,66.94,41.74S98.1,50.08,99.51,64.1Z"/><path class="cls-1" d="M175.33,62.45c-5.39,14.85,5.82,30.17,23.06,38.78,23.67,11.82,4.31-18.89,42.56-15,56.85,5.81-7.28-32.44-23.06-38.78S180.71,47.61,175.33,62.45Z"/><circle class="cls-2" cx="107.45" cy="117.25" r="15.98"/><circle class="cls-2" cx="164.68" cy="128.59" r="17.53"/><circle cx="105.51" cy="121.13" r="11.61"/><path d="M105.51,110a11.11,11.11,0,1,1-11.1,11.1,11.12,11.12,0,0,1,11.1-11.1m0-1a12.11,12.11,0,1,0,12.11,12.1A12.1,12.1,0,0,0,105.51,109Z"/><path d="M161.94,144.65a12.48,12.48,0,1,1,12.48-12.48A12.5,12.5,0,0,1,161.94,144.65Z"/><path d="M161.94,120.19a12,12,0,1,1-12,12,12,12,0,0,1,12-12m0-1a13,13,0,1,0,13,13,13,13,0,0,0-13-13Z"/><circle class="cls-3" cx="108.48" cy="113.13" r="2.32"/><circle class="cls-3" cx="110.54" cy="118.28" r="0.77"/><circle class="cls-3" cx="165.2" cy="124.47" r="2.32"/><circle class="cls-3" cx="167.26" cy="129.62" r="0.77"/><path class="cls-4" d="M158.27,155.69c-4.9,9.75-36.9,12.09-36.9,12.09S97.6,154.85,99.2,142s16.71-15.24,32.81-13.23S164.08,144.11,158.27,155.69Z"/><path class="cls-5" d="M118.59,152.79a1.84,1.84,0,0,1-.33,0c-1-.19-1.79-1.3-2.23-3a15.81,15.81,0,0,1,0-6.72c.91-4.6,3.29-8.2,5.42-8.2l.33,0c1,.19,1.8,1.3,2.23,3a15.65,15.65,0,0,1,0,6.72C123.11,149.19,120.73,152.79,118.59,152.79Z"/><path d="M121.46,135.32h0l.23,0c.78.15,1.47,1.15,1.85,2.66a15.23,15.23,0,0,1,0,6.49c-.92,4.67-3.29,7.8-4.93,7.8l-.23,0c-.77-.15-1.46-1.15-1.85-2.66a15.23,15.23,0,0,1,0-6.49c.92-4.67,3.29-7.8,4.93-7.8m0-1c-2.37,0-4.94,3.69-5.91,8.6-1,5.22.14,9.84,2.61,10.33a2.15,2.15,0,0,0,.43,0c2.37,0,4.94-3.69,5.91-8.6,1-5.22-.14-9.84-2.61-10.33a2.09,2.09,0,0,0-.43,0Z"/><path class="cls-5" d="M134.31,156.29a2.38,2.38,0,0,1-.39,0c-2.38-.47-3.54-5.16-2.53-10.25.94-4.8,3.51-8.56,5.84-8.56a1.72,1.72,0,0,1,.39,0c1.08.21,2,1.38,2.48,3.21a15.82,15.82,0,0,1,0,7C139.2,152.54,136.63,156.29,134.31,156.29Z"/><path d="M137.23,138h0a1.43,1.43,0,0,1,.29,0c.89.17,1.66,1.21,2.1,2.85a15.39,15.39,0,0,1,0,6.81c-1,5-3.55,8.15-5.34,8.15a1.51,1.51,0,0,1-.3,0c-.89-.18-1.66-1.22-2.1-2.85a15.55,15.55,0,0,1,0-6.81c1-5,3.55-8.16,5.35-8.16m0-1c-2.56,0-5.32,3.83-6.33,9-1.08,5.46.23,10.31,2.92,10.84a2.63,2.63,0,0,0,.49,0c2.56,0,5.31-3.83,6.33-9,1.07-5.45-.24-10.3-2.93-10.83a2.61,2.61,0,0,0-.48-.05Z"/><path d="M86.56,98.72A14.31,14.31,0,0,1,86,96.21C85.55,91.38,91.45,86.8,99.2,86a22.29,22.29,0,0,1,2.3-.12c5,0,9.36,1.7,11.44,4.45a.57.57,0,0,1-.31.09.43.43,0,0,1-.21-.05A18.24,18.24,0,0,0,103.05,88a21.57,21.57,0,0,0-2.4.13C92.73,89,86.63,93.62,86.56,98.72Z"/><path d="M101.5,86.39A16.08,16.08,0,0,1,110.88,89a20.16,20.16,0,0,0-7.83-1.5,22.34,22.34,0,0,0-2.45.13c-6.88.71-12.43,4.27-14,8.57v-.07c-.47-4.55,5.23-8.89,12.71-9.65a21.34,21.34,0,0,1,2.25-.12h0m0-1c-.77,0-1.55,0-2.35.12-8,.83-14.13,5.64-13.61,10.75.12,1.14.7,3.87,1.3,3.87.11,0,.21-.08.32-.27s0-.3-.07-.45c-.52-5.12,5.57-9.93,13.61-10.76a23.41,23.41,0,0,1,2.35-.12,17.85,17.85,0,0,1,9.12,2.27.84.84,0,0,0,.46.13c.54,0,1.06-.42.77-.82-2.12-2.87-6.64-4.72-11.9-4.72Z"/><path d="M198,119.09c1-2.65.33-5.76-1.81-8.82a23.17,23.17,0,0,0-9.89-7.59,24.76,24.76,0,0,0-9.53-2.05,17.4,17.4,0,0,0-4,.44l-.1,0a.7.7,0,0,1-.58-.35,13.14,13.14,0,0,1,7.37-1.95,23.76,23.76,0,0,1,9.15,2c8.21,3.49,13.16,10.42,11,15.45A14.45,14.45,0,0,1,198,119.09Z"/><path d="M179.44,99.29a23.29,23.29,0,0,1,8.95,1.93c8,3.39,12.8,10,10.77,14.8l-.27.59c0-5.25-4.95-11.21-12.43-14.39a25.19,25.19,0,0,0-9.73-2.09,18.63,18.63,0,0,0-2.85.21,13.92,13.92,0,0,1,5.56-1m0-1a13.14,13.14,0,0,0-7.69,2.12c-.52.38.17,1.18.9,1.18a.83.83,0,0,0,.22,0,16.9,16.9,0,0,1,3.86-.43,24.25,24.25,0,0,1,9.34,2c8.48,3.6,13.54,10.81,11.29,16.1a4,4,0,0,1-.22.47c.07.28.18.4.33.4.7,0,2.13-2.58,2.61-3.7,2.25-5.29-2.81-12.5-11.3-16.11a24.18,24.18,0,0,0-9.34-2Z"/><ellipse class="cls-6" cx="174.86" cy="151.79" rx="13.79" ry="11.86"/><ellipse class="cls-6" cx="85.62" cy="127.82" rx="9.02" ry="10.49" transform="translate(-56.35 187.09) rotate(-78.85)"/><path class="cls-7" d="M99.2,172.42l6.34,4.58c7.83,5.9,17.23,8.46,25.93,7.06L142,182.21"/><path class="cls-7" d="M91.56,173.86l4.5-.11a5.31,5.31,0,0,0,4.8-3.34l1.4-3.52"/><path class="cls-7" d="M149.32,185.38l-4.84-1.67a6,6,0,0,1-4-5.28l-.3-4.3"/><path d="M68.71,80.69c-2.65,0-2.94-1.37-3.41-3.65-.72-3.49-1.71-8.28-12.5-10-9.14-1.41-10.49-3.33-10.48-4.35,0-4.24,19.36-10.4,26.64-11.4a16.06,16.06,0,0,1,2.09-.14c9.11,0,15.9,6.66,16.53,12.87.86,8.57-7.3,14.31-15.78,16.2A14.38,14.38,0,0,1,68.71,80.69Z"/><path d="M71.05,50.7v1c7.88,0,15.37,5.81,16,12.42.6,6-3.92,13.11-15.39,15.67a14.61,14.61,0,0,1-3,.4c-2.24,0-2.44-1-2.92-3.25C65.08,73.51,64,68.32,52.88,66.6c-9.59-1.48-10.06-3.47-10.06-3.85,0-1.26,2.79-3.65,10.57-6.57A89.61,89.61,0,0,1,69,51.84a15,15,0,0,1,2-.14v-1m0,0a15.68,15.68,0,0,0-2.16.15c-8.58,1.17-45,12.29-16.16,16.74,17.45,2.69,8.36,13.6,16,13.6a15.21,15.21,0,0,0,3.2-.43c9.58-2.13,17-8.48,16.17-16.74-.76-7.57-9-13.32-17-13.32Z"/><path d="M205.47,90.72a11.08,11.08,0,0,1-4.22-1.17C192.51,85.68,185,77.3,188,67.28c2.08-7.07,9.79-12.39,17.94-12.39a16.16,16.16,0,0,1,5.21.82,177.11,177.11,0,0,1,19.65,8.55c9.2,4.7,14.32,8.67,14,10.88-.16,1.23-6.63,2.47-18.7,2.47h-1.56c-11.73,0-13.87,5.38-15.44,9.3C208.08,89.41,207.47,90.72,205.47,90.72Z"/><path d="M205.89,55.39a15.76,15.76,0,0,1,5.05.79,176.13,176.13,0,0,1,19.58,8.52c2.36,1.21,14,7.33,13.78,10.33-.6.85-5.89,2.08-18.2,2.08h-1.57c-12.07,0-14.38,5.79-15.91,9.62-.94,2.36-1.47,3.5-3.15,3.5a10.84,10.84,0,0,1-4-1.13A24.88,24.88,0,0,1,190.36,80a15,15,0,0,1-1.93-12.58c2-6.86,9.52-12,17.46-12m0-1c-7.84,0-16.13,5-18.42,12.75C184.66,76.74,191.2,85.65,201,90a11.57,11.57,0,0,0,4.43,1.21c6.49,0,.87-13.12,19.06-13.12h1.57c8.77,0,18.9-.7,19.19-2.91.75-5.92-27.57-17.79-34-20a17,17,0,0,0-5.37-.84Z"/></svg>
